<svg version="1.1" id="Layer_1" xmlns="http://www.w3.org/2000/svg" xmlns:xlink="http://www.w3.org/1999/xlink" x="0px" y="0px"
	 width="100%" viewBox="0 0 894 653" enable-background="new 0 0 894 653" xml:space="preserve">
<path fill="#FFFFFF" opacity="1.000000" stroke="none" 
	d="
M532.000000,654.000000 
	C518.979126,654.000000 505.958221,654.000000 492.467133,653.630493 
	C490.303436,650.405884 488.609924,647.550903 486.890625,644.652405 
	C490.934235,642.953369 491.742340,639.457092 490.771729,636.166382 
	C490.172119,634.133301 487.729706,631.663940 485.722473,631.237854 
	C482.000702,630.447937 477.991638,631.011597 474.000000,631.011597 
	C474.000000,639.120789 474.000000,646.560425 474.000000,654.000000 
	C461.979095,654.000000 449.958221,654.000000 437.468658,653.553284 
	C437.000000,651.836548 437.000000,650.566528 437.000000,648.944824 
	C434.163177,648.944824 431.732849,648.944824 428.974518,648.944824 
	C429.130524,647.373352 429.247711,646.192810 429.382294,644.836853 
	C431.725708,644.836853 433.678650,644.836853 435.640564,644.836853 
	C435.640564,643.094727 435.640564,641.579529 435.640564,639.866577 
	C433.323334,639.866577 431.365204,639.866577 429.020386,639.866577 
	C429.124084,638.457581 429.210724,637.281006 429.294067,636.148804 
	C432.095184,636.012756 434.515106,635.895203 437.104858,635.769409 
	C436.961395,633.951599 436.850800,632.550659 436.752625,631.306641 
	C431.963562,631.306641 427.567474,631.306641 423.000000,631.306641 
	C423.000000,639.074890 423.000000,646.537415 423.000000,654.000000 
	C407.645782,654.000000 392.291534,654.000000 376.468658,653.542114 
	C376.000000,650.480835 376.000000,647.877502 376.000000,644.995117 
	C378.062469,644.995117 379.751984,645.287842 381.292664,644.933472 
	C384.386688,644.221924 386.920624,643.092651 387.118744,638.983643 
	C387.326569,634.674011 385.906250,631.734924 381.755127,631.129761 
	C377.946381,630.574402 373.992859,631.011780 370.000000,631.011780 
	C370.000000,639.120239 370.000000,646.560120 370.000000,654.000000 
	C355.645782,654.000000 341.291534,654.000000 326.566437,653.648071 
	C331.038330,651.889526 333.908600,648.290955 334.000000,643.511169 
	C334.128998,636.765747 331.924164,632.545349 327.544495,631.154663 
	C322.742523,629.629761 316.211884,631.345459 313.610596,634.898560 
	C309.166779,640.968262 309.878754,649.451477 320.000000,654.000000 
	C305.979095,654.000000 291.958221,654.000000 277.467102,653.630493 
	C275.303406,650.405945 273.609894,647.550903 271.890594,644.652405 
	C275.934235,642.953369 276.742310,639.457092 275.771729,636.166382 
	C275.172089,634.133301 272.729706,631.663940 270.722473,631.237915 
	C267.000702,630.447998 262.991638,631.011597 259.000000,631.011597 
	C259.000000,639.120789 259.000000,646.560425 259.000000,654.000000 
	C243.645767,654.000000 228.291550,654.000000 212.468658,653.542114 
	C212.000000,650.480835 212.000000,647.877502 212.000000,644.995117 
	C214.062500,644.995117 215.751968,645.287781 217.292648,644.933411 
	C220.386642,644.221863 222.920746,643.092712 223.118805,638.983643 
	C223.326508,634.674072 221.906387,631.734924 217.755127,631.129761 
	C213.946350,630.574463 209.992859,631.011780 206.000000,631.011780 
	C206.000000,639.120239 206.000000,646.560120 206.000000,654.000000 
	C137.771332,654.000000 69.542679,654.000000 1.000000,654.000000 
	C1.000000,627.313232 1.000000,600.625305 1.463896,573.468628 
	C5.534247,572.999939 9.140703,572.999939 12.714876,572.999939 
	C12.714876,530.709778 12.714876,488.974121 12.714876,447.000000 
	C8.620758,447.000000 4.810379,447.000000 1.000000,447.000000 
	C1.000000,298.407074 1.000000,149.814148 1.000000,1.000000 
	C146.020813,1.000000 291.041748,1.000000 436.334656,1.384418 
	C423.994690,3.514279 411.258362,4.641228 398.799103,7.146188 
	C378.750214,11.177064 359.954376,19.098841 342.397400,29.381304 
	C324.318878,39.969189 307.531403,52.508724 293.876038,68.680504 
	C287.033508,76.783989 280.218719,84.945694 273.950165,93.490952 
	C264.474426,106.408211 257.515533,120.740891 251.706802,135.650421 
	C244.090164,155.200409 239.311676,175.487854 238.200958,196.353394 
	C237.290283,213.460922 237.808456,230.603104 240.796906,247.696106 
	C243.869232,265.268829 248.846573,282.194794 256.199860,298.259216 
	C268.208954,324.494934 284.618805,347.660828 306.344238,367.057007 
	C320.451111,379.651459 335.569672,390.664795 352.465424,398.907288 
	C363.903931,404.487488 376.076385,408.618042 388.064545,413.003357 
	C404.778748,419.117462 422.380554,421.229401 439.937775,421.722046 
	C453.836639,422.112000 467.853668,420.445221 481.731903,418.910706 
	C502.748962,416.586884 522.621521,409.786774 541.230957,400.078979 
	C553.709839,393.569305 565.415771,385.450500 576.995850,377.375397 
	C594.254517,365.340485 607.955933,349.707764 620.083679,332.623932 
	C633.659912,313.499756 643.501099,292.613861 650.056213,270.124573 
	C654.782837,253.908264 657.712463,237.387558 657.916504,220.500473 
	C658.038452,210.413925 658.019897,200.235443 656.825928,190.246307 
	C655.363281,178.008316 653.526367,165.668091 650.220642,153.827286 
	C642.858826,127.458168 630.668518,103.426933 613.561646,81.802086 
	C603.193787,68.696030 591.583252,56.907734 578.733826,46.482605 
	C563.401428,34.042965 546.206787,24.421152 527.858215,16.957088 
	C510.296173,9.812947 492.208069,4.814571 473.287964,2.964990 
	C468.506958,2.497611 463.761688,1.664854 459.000000,0.999999 
	C604.266174,1.000000 749.532349,1.000000 895.000000,1.000000 
	C895.000000,171.020844 895.000000,341.041748 894.634277,511.385986 
	C891.798645,499.237854 884.879578,489.773468 873.988708,483.570709 
	C858.945557,475.003052 842.879089,474.781372 827.396240,481.462097 
	C817.350647,485.796692 809.863342,493.796783 805.704834,504.560760 
	C801.561401,515.285706 801.184387,526.084595 802.955078,537.251892 
	C805.204712,551.439697 812.362122,562.498962 824.848328,569.192444 
	C840.403870,577.531311 856.725708,577.354980 872.277039,569.079712 
	C882.051147,563.878601 889.354614,555.903259 892.281677,544.290771 
	C890.897034,544.168396 889.949646,544.014587 889.001831,544.011902 
	C881.671875,543.991089 874.340820,543.946106 867.013184,544.076538 
	C866.232849,544.090393 865.298462,545.049744 864.729248,545.794800 
	C860.435669,551.415161 854.369446,554.592163 847.760681,553.760193 
	C836.949280,552.399109 829.464050,549.025024 827.533203,534.000000 
	C850.038940,534.000000 872.519470,534.000000 895.000000,534.000000 
	C895.000000,573.947083 895.000000,613.894104 895.000000,654.000000 
	C824.979187,654.000000 754.958252,654.000000 684.572388,653.642456 
	C687.473938,652.541931 689.930969,651.145081 690.036560,647.226440 
	C690.140015,643.388977 688.481262,641.213318 684.771301,640.279968 
	C682.804077,639.784973 680.951050,638.836060 679.046509,638.092041 
	C679.248230,637.530518 679.449890,636.968994 679.651550,636.407471 
	C680.959595,636.895630 682.236572,637.654724 683.582825,637.809326 
	C685.660095,638.047668 687.784851,637.872070 689.876160,637.872070 
	C690.031677,630.587585 683.028137,629.742615 676.953796,631.831177 
	C675.176331,632.442322 673.400757,635.599915 673.273560,637.690796 
	C673.165710,639.462585 675.171509,641.662231 676.743042,643.139404 
	C677.931946,644.256897 680.083984,644.292114 681.467957,645.283020 
	C682.201233,645.808044 682.210938,647.343628 682.348511,647.785217 
	C678.877686,646.916138 676.112549,646.223816 673.341248,645.529907 
	C672.074341,651.334473 676.361450,652.020813 679.000000,654.000000 
	C665.312439,654.000000 651.624878,654.000000 637.468628,653.553284 
	C637.000000,651.836548 637.000000,650.566528 637.000000,648.944824 
	C634.163208,648.944824 631.732849,648.944824 628.974426,648.944824 
	C629.130371,647.373352 629.247559,646.192871 629.382080,644.836914 
	C631.725708,644.836914 633.678711,644.836914 635.640625,644.836914 
	C635.640625,643.094727 635.640625,641.579468 635.640625,639.866577 
	C633.323364,639.866577 631.365234,639.866577 629.020264,639.866577 
	C629.124084,638.457520 629.210754,637.280945 629.294128,636.148743 
	C632.094055,636.012756 634.512695,635.895264 637.104980,635.769287 
	C636.961365,633.951660 636.850708,632.550659 636.752380,631.306641 
	C631.961426,631.306641 627.565430,631.306641 623.000000,631.306641 
	C623.000000,639.074951 623.000000,646.537476 623.000000,654.000000 
	C610.979126,654.000000 598.958191,654.000000 586.468628,653.531372 
	C586.000000,645.831543 586.000000,638.600403 586.000000,631.188232 
	C583.546997,631.188232 581.489746,631.188232 579.000000,631.188232 
	C579.000000,638.884644 579.000000,646.442322 579.000000,654.000000 
	C565.645752,654.000000 552.291565,654.000000 538.468628,653.531738 
	C538.000000,647.466614 538.000000,641.869690 538.000000,635.929688 
	C540.188599,635.929688 541.932434,635.929688 543.813354,635.929688 
	C543.813354,634.172607 543.813354,632.772583 543.813354,631.187012 
	C537.892578,631.187012 532.156372,631.187012 526.326416,631.187012 
	C526.326416,632.858826 526.326416,634.370544 526.326416,635.829712 
	C528.387878,635.991455 530.120728,636.127380 532.000000,636.274841 
	C532.000000,642.421326 532.000000,648.210693 532.000000,654.000000 
M153.011215,571.095764 
	C152.957413,541.057068 152.903625,511.018311 152.923325,480.455536 
	C152.624634,480.359192 152.325958,480.262848 151.106903,480.015839 
	C147.508545,480.015839 143.910172,480.015839 140.312851,480.015839 
	C140.312851,511.271606 140.312851,542.043274 140.312851,572.834167 
	C144.424850,572.834167 148.223801,572.834167 152.545395,572.922913 
	C152.647385,572.623291 152.749390,572.323730 153.011215,571.095764 
M580.000000,539.500000 
	C580.334351,530.611511 580.192444,521.671387 581.150391,512.850586 
	C581.949524,505.492035 590.858215,498.887543 599.974426,498.909668 
	C609.532959,498.932861 617.511841,504.579437 618.960510,512.653625 
	C619.473694,515.513855 619.933655,518.431458 619.949097,521.325378 
	C620.040710,538.428833 619.994202,555.533020 619.994202,572.761658 
	C628.515320,572.761658 636.580383,572.761658 644.998901,572.761658 
	C644.998901,552.410034 645.039551,532.294128 644.948425,512.178833 
	C644.936768,509.609192 644.561401,506.943115 643.806335,504.490540 
	C638.149658,486.117798 626.367554,477.644928 608.185425,477.192871 
	C594.451965,476.851440 582.947937,482.508698 575.151611,495.047333 
	C568.522034,484.183167 558.796875,478.012390 546.512878,477.152435 
	C534.411255,476.305237 523.246399,479.346100 514.731201,491.190674 
	C514.731201,485.987366 514.731201,482.570435 514.731201,479.337280 
	C506.277893,479.337280 498.211914,479.337280 490.334015,479.337280 
	C490.334015,510.729462 490.334015,541.783936 490.334015,572.654236 
	C498.738953,572.654236 506.806458,572.654236 515.000122,572.654236 
	C515.000122,554.496155 515.161682,536.681152 514.940186,518.870850 
	C514.805115,508.007080 524.201416,498.900452 535.119385,498.877441 
	C547.134460,498.852142 555.199280,509.348053 555.063599,518.973816 
	C554.831238,535.460022 554.993591,551.951904 555.008972,568.441406 
	C555.010315,569.880127 555.151306,571.318665 555.224731,572.704956 
	C563.633789,572.704956 571.699097,572.704956 580.000000,572.704956 
	C580.000000,561.774414 580.000000,551.137207 580.000000,539.500000 
M737.987671,484.471252 
	C730.137451,478.941895 721.241394,476.605377 711.838318,477.103668 
	C701.224915,477.666107 691.974121,481.628937 684.942505,491.911407 
	C684.942505,486.763214 684.942505,483.045776 684.942505,479.247253 
	C676.461060,479.247253 668.396667,479.247253 660.219360,479.247253 
	C660.219360,525.533508 660.219360,571.572754 660.219360,617.769775 
	C668.503967,617.769775 676.566772,617.769775 685.046631,617.769775 
	C685.046631,598.531738 685.046631,579.518555 685.046631,559.147766 
	C686.153625,560.845764 686.521667,561.486328 686.964294,562.070435 
	C687.551392,562.845215 688.136047,563.637756 688.826294,564.316345 
	C698.202515,573.534058 709.163330,576.236938 722.217896,574.196655 
	C736.038025,572.036621 749.162598,560.465637 754.104919,548.049438 
	C758.673035,536.573303 759.149597,524.863953 756.920776,513.014587 
	C754.707092,501.245819 748.470154,491.823120 737.987671,484.471252 
M336.980896,607.527588 
	C346.520294,599.086975 350.009216,588.172607 350.003693,575.804016 
	C349.990143,545.650513 349.999420,515.496948 349.999451,485.343414 
	C349.999481,483.594971 349.999451,481.846527 349.999451,480.375885 
	C345.208008,480.375885 341.137909,480.375885 336.602234,480.375885 
	C336.602234,486.030792 336.602234,491.314484 336.602234,496.770691 
	C334.100403,493.915375 332.104919,491.232697 329.709229,488.974548 
	C319.843964,479.675964 308.209869,476.970734 294.849030,478.875671 
	C280.108337,480.977295 269.138458,488.169128 262.444153,501.232727 
	C254.925522,515.904846 254.755966,531.558655 260.470642,546.606140 
	C266.335449,562.048950 277.796722,572.721191 294.674500,574.804321 
	C311.783051,576.915833 326.744873,572.054382 336.999481,555.708557 
	C336.999481,565.014709 337.896149,573.569580 336.686890,581.815674 
	C335.869293,587.390747 333.077545,593.370239 329.420441,597.687988 
	C322.173340,606.244324 312.483673,609.019653 301.026306,607.153320 
	C288.300110,605.080322 279.223785,599.040833 274.323547,587.376465 
	C270.163513,587.376465 266.122314,587.376465 262.025604,587.376465 
	C264.583984,598.840759 267.297852,602.739502 275.969147,609.567139 
	C282.657745,614.833740 290.193542,617.135437 298.498596,618.323792 
	C312.765747,620.365356 325.507965,617.739258 336.980896,607.527588 
M395.782104,515.960815 
	C393.415100,514.958252 390.917633,514.181885 388.707581,512.907166 
	C383.719391,510.030182 383.596100,502.454926 388.349548,499.266296 
	C397.697357,492.995728 410.271637,497.946442 412.504852,508.723297 
	C420.611725,508.723297 428.703857,508.723297 436.730499,508.723297 
	C438.683624,499.449615 431.538818,487.362366 422.709686,482.969757 
	C407.126617,475.216888 391.407684,474.677063 375.733002,482.737518 
	C362.478271,489.553497 358.211700,502.401550 362.122437,514.723206 
	C365.385498,525.004333 374.503967,528.401306 383.925385,531.025940 
	C392.699982,533.470337 401.536957,535.774902 410.122742,538.780273 
	C414.886383,540.447693 415.378845,546.607605 411.986023,550.455261 
	C407.428864,555.623413 401.511993,555.779175 395.669617,554.695679 
	C389.656006,553.580383 386.163300,549.344177 385.678589,543.314270 
	C377.258575,543.314270 369.172791,543.314270 360.914856,543.314270 
	C360.938507,553.921570 365.105255,562.003845 373.533295,567.861938 
	C379.211487,571.808655 385.599609,573.355408 392.441345,574.276367 
	C408.806915,576.479370 423.369537,573.541992 434.118103,560.188416 
	C439.467987,553.541931 439.554810,545.117126 436.955627,537.423035 
	C433.803467,528.092102 426.240662,523.136658 416.745605,520.971863 
	C410.005157,519.435120 403.317688,517.665894 395.782104,515.960815 
M792.000000,508.500000 
	C792.000000,488.081726 792.000000,467.663452 792.000000,447.302429 
	C783.682739,447.302429 775.950623,447.302429 768.290161,447.302429 
	C768.290161,489.320587 768.290161,531.035583 768.290161,572.697449 
	C776.316345,572.697449 784.048401,572.697449 792.000000,572.697449 
	C792.000000,551.430481 792.000000,530.465210 792.000000,508.500000 
M235.000366,569.337280 
	C234.609909,571.961060 235.327240,573.329590 238.389526,573.059204 
	C241.475601,572.786804 244.604492,572.999207 248.006577,572.999207 
	C248.006577,554.010498 248.057892,535.545776 247.960373,517.081848 
	C247.942307,513.662964 247.658722,510.173950 246.928970,506.841858 
	C241.436234,481.761597 216.231003,472.044617 194.836441,481.854248 
	C189.695999,484.211212 185.442154,488.501801 180.676605,491.979004 
	C180.676605,488.251526 180.676605,484.171570 180.676605,480.198761 
	C176.659241,480.198761 173.041000,480.198761 169.216309,480.198761 
	C169.216309,511.128174 169.216309,541.859375 169.216309,572.774048 
	C173.154968,572.774048 176.888245,572.774048 180.999222,572.774048 
	C180.999222,570.761047 180.971191,568.966919 181.003555,567.173889 
	C181.329910,549.097168 181.457428,531.013123 182.108551,512.947937 
	C182.348770,506.283234 185.482864,500.626740 190.469513,495.858978 
	C197.737976,488.909607 206.561737,488.722900 215.281128,490.377472 
	C220.957428,491.454681 226.124985,494.561890 229.677505,500.040527 
	C233.188705,505.455505 234.828705,511.241119 234.916412,517.381897 
	C235.159134,534.374512 235.000366,551.372803 235.000366,569.337280 
M448.990753,496.501221 
	C448.990753,521.915344 448.990753,547.329529 448.990753,572.709412 
	C457.624268,572.709412 465.689728,572.709412 473.716919,572.709412 
	C473.716919,541.367004 473.716919,510.315796 473.716919,479.292786 
	C465.365631,479.292786 457.300781,479.292786 448.990753,479.292786 
	C448.990753,484.889343 448.990753,490.195587 448.990753,496.501221 
M117.048401,488.596619 
	C108.357140,511.975037 99.665886,535.353455 90.795670,559.213196 
	C90.178131,558.124023 89.816963,557.647583 89.616936,557.111084 
	C81.739136,535.983276 73.704109,514.911804 66.072052,493.695435 
	C61.067299,479.782745 61.329506,479.688416 47.031120,480.114807 
	C49.708832,486.732758 52.391846,493.208405 54.956284,499.730652 
	C62.990044,520.163025 71.115631,540.560974 78.933075,561.076172 
	C83.460495,572.957397 83.224739,573.049072 96.241989,572.994019 
	C96.730278,572.991943 97.218132,572.885254 97.415352,572.861816 
	C109.709923,541.940796 121.934387,511.196045 134.337677,480.001587 
	C130.251511,480.001587 126.751961,480.199921 123.287125,479.938416 
	C120.552750,479.732056 119.491837,480.972382 118.965111,483.348938 
	C118.618790,484.911530 118.031372,486.420685 117.048401,488.596619 
M38.376556,572.999573 
	C42.399227,573.843384 42.028133,571.183411 42.025120,568.588806 
	C41.992245,540.274170 42.004417,511.959595 42.004330,483.644989 
	C42.004330,482.535950 42.004330,481.426910 42.004330,480.264984 
	C37.427887,480.264984 33.361374,480.264984 29.260273,480.264984 
	C29.260273,511.251648 29.260273,541.972839 29.260273,572.999512 
	C32.150429,572.999512 34.784298,572.999512 38.376556,572.999573 
M464.031219,440.010101 
	C460.087433,441.101166 455.519684,441.287506 452.337128,443.482330 
	C446.700653,447.369446 445.166321,456.719330 448.097748,462.501862 
	C450.837280,467.905792 459.411774,471.477051 466.002655,469.959229 
	C472.802246,468.393341 477.740295,459.395203 476.439606,452.635345 
	C475.114441,445.748413 470.709167,442.499146 464.031219,440.010101 
M42.546913,448.036255 
	C39.611984,447.024078 36.713703,445.319733 33.733540,445.161957 
	C29.262098,444.925201 27.119661,448.993652 26.476282,452.368866 
	C25.951078,455.124146 27.080685,459.196167 29.024244,461.124207 
	C30.781590,462.867432 34.897881,463.529846 37.511345,462.861023 
	C44.378292,461.103851 45.964111,456.232391 42.546913,448.036255 
M154.766739,450.257416 
	C152.997437,446.041412 149.330505,444.309784 145.390167,445.225403 
	C142.669983,445.857483 139.862427,448.163086 138.122345,450.489929 
	C135.413498,454.112183 137.150879,458.315948 139.756180,461.005463 
	C141.805359,463.120880 144.970840,464.810883 148.799820,463.137604 
	C154.132584,460.807220 155.029724,459.581390 154.766739,450.257416 
z"/>
<path fill="#8CD50B" opacity="1.000000" stroke="none" 
	d="
M458.531433,0.999999 
	C463.761688,1.664854 468.506958,2.497611 473.287964,2.964990 
	C492.208069,4.814571 510.296173,9.812947 527.858215,16.957088 
	C546.206787,24.421152 563.401428,34.042965 578.733826,46.482605 
	C591.583252,56.907734 603.193787,68.696030 613.561646,81.802086 
	C630.668518,103.426933 642.858826,127.458168 650.220642,153.827286 
	C653.526367,165.668091 655.363281,178.008316 656.825928,190.246307 
	C658.019897,200.235443 658.038452,210.413925 657.916504,220.500473 
	C657.712463,237.387558 654.782837,253.908264 650.056213,270.124573 
	C643.501099,292.613861 633.659912,313.499756 620.083679,332.623932 
	C607.955933,349.707764 594.254517,365.340485 576.995850,377.375397 
	C565.415771,385.450500 553.709839,393.569305 541.230957,400.078979 
	C522.621521,409.786774 502.748962,416.586884 481.731903,418.910706 
	C467.853668,420.445221 453.836639,422.112000 439.937775,421.722046 
	C422.380554,421.229401 404.778748,419.117462 388.064545,413.003357 
	C376.076385,408.618042 363.903931,404.487488 352.465424,398.907288 
	C335.569672,390.664795 320.451111,379.651459 306.344238,367.057007 
	C284.618805,347.660828 268.208954,324.494934 256.199860,298.259216 
	C248.846573,282.194794 243.869232,265.268829 240.796906,247.696106 
	C237.808456,230.603104 237.290283,213.460922 238.200958,196.353394 
	C239.311676,175.487854 244.090164,155.200409 251.706802,135.650421 
	C257.515533,120.740891 264.474426,106.408211 273.950165,93.490952 
	C280.218719,84.945694 287.033508,76.783989 293.876038,68.680504 
	C307.531403,52.508724 324.318878,39.969189 342.397400,29.381304 
	C359.954376,19.098841 378.750214,11.177064 398.799103,7.146188 
	C411.258362,4.641228 423.994690,3.514279 436.803345,1.384418 
	C444.020966,1.000000 451.041901,1.000000 458.531433,0.999999 
M283.927338,296.602905 
	C285.767059,300.041504 287.402893,303.608826 289.479889,306.897552 
	C301.942535,326.630859 317.149719,343.903503 335.680084,358.198090 
	C363.992889,380.039032 396.130737,392.665131 431.544342,395.694702 
	C448.373596,397.134460 465.437592,396.557190 482.372559,393.194000 
	C515.405334,386.633850 544.702271,372.628143 569.818604,350.471375 
	C590.929077,331.848358 607.275269,309.510986 618.354736,283.364594 
	C626.846069,263.326141 631.524780,242.439133 632.770081,220.913330 
	C633.412842,209.802841 631.892151,198.536499 630.964478,187.372513 
	C629.258728,166.843994 622.555664,147.660110 613.563904,129.378922 
	C606.957397,115.947121 598.642517,103.503670 588.733215,92.070587 
	C578.959106,80.793465 568.242371,70.678574 556.288330,61.856144 
	C544.734253,53.328968 532.175781,46.565205 518.942322,40.945831 
	C500.962769,33.311085 482.195709,28.403517 462.843872,27.289125 
	C448.745605,26.477264 434.446167,27.811396 420.322906,29.121332 
	C402.534332,30.771223 385.741730,36.588058 369.663940,44.148315 
	C345.174347,55.664055 324.221191,71.860283 306.772217,92.659332 
	C295.602722,105.973244 286.497253,120.445549 279.279785,136.247192 
	C269.617310,157.401978 264.163147,179.670349 263.292175,202.711807 
	C262.748505,217.094193 264.045532,231.742676 266.316406,245.984772 
	C269.107483,263.489227 275.278320,280.170044 283.927338,296.602905 
z"/>
<path fill="#282829" opacity="1.000000" stroke="none" 
	d="
M895.000000,533.531433 
	C872.519470,534.000000 850.038940,534.000000 827.533203,534.000000 
	C829.464050,549.025024 836.949280,552.399109 847.760681,553.760193 
	C854.369446,554.592163 860.435669,551.415161 864.729248,545.794800 
	C865.298462,545.049744 866.232849,544.090393 867.013184,544.076538 
	C874.340820,543.946106 881.671875,543.991089 889.001831,544.011902 
	C889.949646,544.014587 890.897034,544.168396 892.281677,544.290771 
	C889.354614,555.903259 882.051147,563.878601 872.277039,569.079712 
	C856.725708,577.354980 840.403870,577.531311 824.848328,569.192444 
	C812.362122,562.498962 805.204712,551.439697 802.955078,537.251892 
	C801.184387,526.084595 801.561401,515.285706 805.704834,504.560760 
	C809.863342,493.796783 817.350647,485.796692 827.396240,481.462097 
	C842.879089,474.781372 858.945557,475.003052 873.988708,483.570709 
	C884.879578,489.773468 891.798645,499.237854 894.634277,511.854675 
	C895.000000,519.020935 895.000000,526.041931 895.000000,533.531433 
M869.016663,517.964050 
	C869.340149,517.479492 869.997925,516.948914 869.938477,516.517090 
	C868.367554,505.101471 858.384888,498.308502 847.718079,498.726990 
	C835.331543,499.212952 830.062805,507.015198 826.890808,517.997437 
	C840.872253,517.997437 854.485779,517.997437 869.016663,517.964050 
z"/>
<path fill="#282829" opacity="1.000000" stroke="none" 
	d="
M1.000000,447.468658 
	C4.810379,447.000000 8.620758,447.000000 12.714876,447.000000 
	C12.714876,488.974121 12.714876,530.709778 12.714876,572.999939 
	C9.140703,572.999939 5.534247,572.999939 1.463896,573.000000 
	C1.000000,531.312439 1.000000,489.624878 1.000000,447.468658 
z"/>
<path fill="#000000" opacity="1.000000" stroke="none" 
	d="
M474.467957,654.000000 
	C474.000000,646.560425 474.000000,639.120789 474.000000,631.011597 
	C477.991638,631.011597 482.000702,630.447937 485.722473,631.237854 
	C487.729706,631.663940 490.172119,634.133301 490.771729,636.166382 
	C491.742340,639.457092 490.934235,642.953369 486.890625,644.652405 
	C488.609924,647.550903 490.303436,650.405884 491.998474,653.630493 
	C486.311951,654.000000 480.623932,654.000000 474.467957,654.000000 
z"/>
<path fill="#000000" opacity="1.000000" stroke="none" 
	d="
M259.467957,654.000000 
	C259.000000,646.560425 259.000000,639.120789 259.000000,631.011597 
	C262.991638,631.011597 267.000702,630.447998 270.722473,631.237915 
	C272.729706,631.663940 275.172089,634.133301 275.771729,636.166382 
	C276.742310,639.457092 275.934235,642.953369 271.890594,644.652405 
	C273.609894,647.550903 275.303406,650.405945 276.998474,653.630493 
	C271.311951,654.000000 265.623932,654.000000 259.467957,654.000000 
z"/>
<path fill="#000000" opacity="1.000000" stroke="none" 
	d="
M320.428467,654.000000 
	C309.878754,649.451477 309.166779,640.968262 313.610596,634.898560 
	C316.211884,631.345459 322.742523,629.629761 327.544495,631.154663 
	C331.924164,632.545349 334.128998,636.765747 334.000000,643.511169 
	C333.908600,648.290955 331.038330,651.889526 326.097778,653.648071 
	C324.285645,654.000000 322.571289,654.000000 320.428467,654.000000 
M321.748138,637.001770 
	C317.091736,638.030396 317.295990,641.621643 318.503784,644.681641 
	C319.109497,646.216309 322.504517,648.211121 323.462799,647.717285 
	C325.399384,646.719299 327.468689,644.303772 327.778595,642.219421 
	C328.235931,639.143555 326.621246,636.449219 321.748138,637.001770 
z"/>
<path fill="#000000" opacity="1.000000" stroke="none" 
	d="
M679.416626,654.000000 
	C676.361450,652.020813 672.074341,651.334473 673.341248,645.529907 
	C676.112549,646.223816 678.877686,646.916138 682.348511,647.785217 
	C682.210938,647.343628 682.201233,645.808044 681.467957,645.283020 
	C680.083984,644.292114 677.931946,644.256897 676.743042,643.139404 
	C675.171509,641.662231 673.165710,639.462585 673.273560,637.690796 
	C673.400757,635.599915 675.176331,632.442322 676.953796,631.831177 
	C683.028137,629.742615 690.031677,630.587585 689.876160,637.872070 
	C687.784851,637.872070 685.660095,638.047668 683.582825,637.809326 
	C682.236572,637.654724 680.959595,636.895630 679.651550,636.407471 
	C679.449890,636.968994 679.248230,637.530518 679.046509,638.092041 
	C680.951050,638.836060 682.804077,639.784973 684.771301,640.279968 
	C688.481262,641.213318 690.140015,643.388977 690.036560,647.226440 
	C689.930969,651.145081 687.473938,652.541931 684.103699,653.642456 
	C682.611084,654.000000 681.222229,654.000000 679.416626,654.000000 
z"/>
<path fill="#000000" opacity="1.000000" stroke="none" 
	d="
M206.428467,654.000000 
	C206.000000,646.560120 206.000000,639.120239 206.000000,631.011780 
	C209.992859,631.011780 213.946350,630.574463 217.755127,631.129761 
	C221.906387,631.734924 223.326508,634.674072 223.118805,638.983643 
	C222.920746,643.092712 220.386642,644.221863 217.292648,644.933411 
	C215.751968,645.287781 214.062500,644.995117 212.000000,644.995117 
	C212.000000,647.877502 212.000000,650.480835 212.000000,653.542114 
	C210.285645,654.000000 208.571289,654.000000 206.428467,654.000000 
z"/>
<path fill="#000000" opacity="1.000000" stroke="none" 
	d="
M370.428467,654.000000 
	C370.000000,646.560120 370.000000,639.120239 370.000000,631.011780 
	C373.992859,631.011780 377.946381,630.574402 381.755127,631.129761 
	C385.906250,631.734924 387.326569,634.674011 387.118744,638.983643 
	C386.920624,643.092651 384.386688,644.221924 381.292664,644.933472 
	C379.751984,645.287842 378.062469,644.995117 376.000000,644.995117 
	C376.000000,647.877502 376.000000,650.480835 376.000000,653.542114 
	C374.285645,654.000000 372.571289,654.000000 370.428467,654.000000 
z"/>
<path fill="#000000" opacity="1.000000" stroke="none" 
	d="
M423.464661,654.000000 
	C423.000000,646.537415 423.000000,639.074890 423.000000,631.306641 
	C427.567474,631.306641 431.963562,631.306641 436.752625,631.306641 
	C436.850800,632.550659 436.961395,633.951599 437.104858,635.769409 
	C434.515106,635.895203 432.095184,636.012756 429.294067,636.148804 
	C429.210724,637.281006 429.124084,638.457581 429.020386,639.866577 
	C431.365204,639.866577 433.323334,639.866577 435.640564,639.866577 
	C435.640564,641.579529 435.640564,643.094727 435.640564,644.836853 
	C433.678650,644.836853 431.725708,644.836853 429.382294,644.836853 
	C429.247711,646.192810 429.130524,647.373352 428.974518,648.944824 
	C431.732849,648.944824 434.163177,648.944824 437.000000,648.944824 
	C437.000000,650.566528 437.000000,651.836548 437.000000,653.553284 
	C432.643097,654.000000 428.286194,654.000000 423.464661,654.000000 
z"/>
<path fill="#000000" opacity="1.000000" stroke="none" 
	d="
M623.464661,654.000000 
	C623.000000,646.537476 623.000000,639.074951 623.000000,631.306641 
	C627.565430,631.306641 631.961426,631.306641 636.752380,631.306641 
	C636.850708,632.550659 636.961365,633.951660 637.104980,635.769287 
	C634.512695,635.895264 632.094055,636.012756 629.294128,636.148743 
	C629.210754,637.280945 629.124084,638.457520 629.020264,639.866577 
	C631.365234,639.866577 633.323364,639.866577 635.640625,639.866577 
	C635.640625,641.579468 635.640625,643.094727 635.640625,644.836914 
	C633.678711,644.836914 631.725708,644.836914 629.382080,644.836914 
	C629.247559,646.192871 629.130371,647.373352 628.974426,648.944824 
	C631.732849,648.944824 634.163208,648.944824 637.000000,648.944824 
	C637.000000,650.566528 637.000000,651.836548 637.000000,653.553284 
	C632.643127,654.000000 628.286194,654.000000 623.464661,654.000000 
z"/>
<path fill="#000000" opacity="1.000000" stroke="none" 
	d="
M532.428467,654.000000 
	C532.000000,648.210693 532.000000,642.421326 532.000000,636.274841 
	C530.120728,636.127380 528.387878,635.991455 526.326416,635.829712 
	C526.326416,634.370544 526.326416,632.858826 526.326416,631.187012 
	C532.156372,631.187012 537.892578,631.187012 543.813354,631.187012 
	C543.813354,632.772583 543.813354,634.172607 543.813354,635.929688 
	C541.932434,635.929688 540.188599,635.929688 538.000000,635.929688 
	C538.000000,641.869690 538.000000,647.466614 538.000000,653.531738 
	C536.285645,654.000000 534.571289,654.000000 532.428467,654.000000 
z"/>
<path fill="#000000" opacity="1.000000" stroke="none" 
	d="
M579.437500,654.000000 
	C579.000000,646.442322 579.000000,638.884644 579.000000,631.188232 
	C581.489746,631.188232 583.546997,631.188232 586.000000,631.188232 
	C586.000000,638.600403 586.000000,645.831543 586.000000,653.531372 
	C583.958313,654.000000 581.916687,654.000000 579.437500,654.000000 
z"/>
<path fill="#282829" opacity="1.000000" stroke="none" 
	d="
M580.000000,540.000000 
	C580.000000,551.137207 580.000000,561.774414 580.000000,572.704956 
	C571.699097,572.704956 563.633789,572.704956 555.224731,572.704956 
	C555.151306,571.318665 555.010315,569.880127 555.008972,568.441406 
	C554.993591,551.951904 554.831238,535.460022 555.063599,518.973816 
	C555.199280,509.348053 547.134460,498.852142 535.119385,498.877441 
	C524.201416,498.900452 514.805115,508.007080 514.940186,518.870850 
	C515.161682,536.681152 515.000122,554.496155 515.000122,572.654236 
	C506.806458,572.654236 498.738953,572.654236 490.334015,572.654236 
	C490.334015,541.783936 490.334015,510.729462 490.334015,479.337280 
	C498.211914,479.337280 506.277893,479.337280 514.731201,479.337280 
	C514.731201,482.570435 514.731201,485.987366 514.731201,491.190674 
	C523.246399,479.346100 534.411255,476.305237 546.512878,477.152435 
	C558.796875,478.012390 568.522034,484.183167 575.151611,495.047333 
	C582.947937,482.508698 594.451965,476.851440 608.185425,477.192871 
	C626.367554,477.644928 638.149658,486.117798 643.806335,504.490540 
	C644.561401,506.943115 644.936768,509.609192 644.948425,512.178833 
	C645.039551,532.294128 644.998901,552.410034 644.998901,572.761658 
	C636.580383,572.761658 628.515320,572.761658 619.994202,572.761658 
	C619.994202,555.533020 620.040710,538.428833 619.949097,521.325378 
	C619.933655,518.431458 619.473694,515.513855 618.960510,512.653625 
	C617.511841,504.579437 609.532959,498.932861 599.974426,498.909668 
	C590.858215,498.887543 581.949524,505.492035 581.150391,512.850586 
	C580.192444,521.671387 580.334351,530.611511 580.000000,540.000000 
z"/>
<path fill="#282829" opacity="1.000000" stroke="none" 
	d="
M738.274414,484.707764 
	C748.470154,491.823120 754.707092,501.245819 756.920776,513.014587 
	C759.149597,524.863953 758.673035,536.573303 754.104919,548.049438 
	C749.162598,560.465637 736.038025,572.036621 722.217896,574.196655 
	C709.163330,576.236938 698.202515,573.534058 688.826294,564.316345 
	C688.136047,563.637756 687.551392,562.845215 686.964294,562.070435 
	C686.521667,561.486328 686.153625,560.845764 685.046631,559.147766 
	C685.046631,579.518555 685.046631,598.531738 685.046631,617.769775 
	C676.566772,617.769775 668.503967,617.769775 660.219360,617.769775 
	C660.219360,571.572754 660.219360,525.533508 660.219360,479.247253 
	C668.396667,479.247253 676.461060,479.247253 684.942505,479.247253 
	C684.942505,483.045776 684.942505,486.763214 684.942505,491.911407 
	C691.974121,481.628937 701.224915,477.666107 711.838318,477.103668 
	C721.241394,476.605377 730.137451,478.941895 738.274414,484.707764 
M723.384888,503.922607 
	C722.263489,503.294952 721.116272,502.708893 720.024597,502.033264 
	C708.401917,494.840088 694.852234,501.165741 689.198669,510.268005 
	C684.326721,518.111755 683.845337,526.578064 686.145813,535.099548 
	C688.691284,544.528381 695.216736,550.770264 704.732239,552.691833 
	C712.780151,554.317017 720.005310,551.677917 725.930237,545.612122 
	C735.331604,535.987122 736.462769,514.254211 723.384888,503.922607 
z"/>
<path fill="#272728" opacity="1.000000" stroke="none" 
	d="
M336.720642,607.776733 
	C325.507965,617.739258 312.765747,620.365356 298.498596,618.323792 
	C290.193542,617.135437 282.657745,614.833740 275.969147,609.567139 
	C267.297852,602.739502 264.583984,598.840759 262.025604,587.376465 
	C266.122314,587.376465 270.163513,587.376465 274.323547,587.376465 
	C279.223785,599.040833 288.300110,605.080322 301.026306,607.153320 
	C312.483673,609.019653 322.173340,606.244324 329.420441,597.687988 
	C333.077545,593.370239 335.869293,587.390747 336.686890,581.815674 
	C337.896149,573.569580 336.999481,565.014709 336.999481,555.708557 
	C326.744873,572.054382 311.783051,576.915833 294.674500,574.804321 
	C277.796722,572.721191 266.335449,562.048950 260.470642,546.606140 
	C254.755966,531.558655 254.925522,515.904846 262.444153,501.232727 
	C269.138458,488.169128 280.108337,480.977295 294.849030,478.875671 
	C308.209869,476.970734 319.843964,479.675964 329.709229,488.974548 
	C332.104919,491.232697 334.100403,493.915375 336.602234,496.770691 
	C336.602234,491.314484 336.602234,486.030792 336.602234,480.375885 
	C341.137909,480.375885 345.208008,480.375885 349.999451,480.375885 
	C349.999451,481.846527 349.999481,483.594971 349.999451,485.343414 
	C349.999420,515.496948 349.990143,545.650513 350.003693,575.804016 
	C350.009216,588.172607 346.520294,599.086975 336.720642,607.776733 
M273.036713,542.254456 
	C276.513214,549.047729 280.584076,554.906860 287.463745,559.262024 
	C303.288910,569.280090 322.511963,562.619812 330.780151,548.848450 
	C339.963287,533.553162 340.225464,517.751465 329.131165,502.496735 
	C320.060608,490.024750 306.525482,487.503571 294.989868,490.738159 
	C272.881989,496.937195 265.016541,520.157410 273.036713,542.254456 
z"/>
<path fill="#282829" opacity="1.000000" stroke="none" 
	d="
M396.194336,515.980591 
	C403.317688,517.665894 410.005157,519.435120 416.745605,520.971863 
	C426.240662,523.136658 433.803467,528.092102 436.955627,537.423035 
	C439.554810,545.117126 439.467987,553.541931 434.118103,560.188416 
	C423.369537,573.541992 408.806915,576.479370 392.441345,574.276367 
	C385.599609,573.355408 379.211487,571.808655 373.533295,567.861938 
	C365.105255,562.003845 360.938507,553.921570 360.914856,543.314270 
	C369.172791,543.314270 377.258575,543.314270 385.678589,543.314270 
	C386.163300,549.344177 389.656006,553.580383 395.669617,554.695679 
	C401.511993,555.779175 407.428864,555.623413 411.986023,550.455261 
	C415.378845,546.607605 414.886383,540.447693 410.122742,538.780273 
	C401.536957,535.774902 392.699982,533.470337 383.925385,531.025940 
	C374.503967,528.401306 365.385498,525.004333 362.122437,514.723206 
	C358.211700,502.401550 362.478271,489.553497 375.733002,482.737518 
	C391.407684,474.677063 407.126617,475.216888 422.709686,482.969757 
	C431.538818,487.362366 438.683624,499.449615 436.730499,508.723297 
	C428.703857,508.723297 420.611725,508.723297 412.504852,508.723297 
	C410.271637,497.946442 397.697357,492.995728 388.349548,499.266296 
	C383.596100,502.454926 383.719391,510.030182 388.707581,512.907166 
	C390.917633,514.181885 393.415100,514.958252 396.194336,515.980591 
z"/>
<path fill="#282829" opacity="1.000000" stroke="none" 
	d="
M792.000000,509.000000 
	C792.000000,530.465210 792.000000,551.430481 792.000000,572.697449 
	C784.048401,572.697449 776.316345,572.697449 768.290161,572.697449 
	C768.290161,531.035583 768.290161,489.320587 768.290161,447.302429 
	C775.950623,447.302429 783.682739,447.302429 792.000000,447.302429 
	C792.000000,467.663452 792.000000,488.081726 792.000000,509.000000 
z"/>
<path fill="#282829" opacity="1.000000" stroke="none" 
	d="
M235.000336,568.853088 
	C235.000366,551.372803 235.159134,534.374512 234.916412,517.381897 
	C234.828705,511.241119 233.188705,505.455505 229.677505,500.040527 
	C226.124985,494.561890 220.957428,491.454681 215.281128,490.377472 
	C206.561737,488.722900 197.737976,488.909607 190.469513,495.858978 
	C185.482864,500.626740 182.348770,506.283234 182.108551,512.947937 
	C181.457428,531.013123 181.329910,549.097168 181.003555,567.173889 
	C180.971191,568.966919 180.999222,570.761047 180.999222,572.774048 
	C176.888245,572.774048 173.154968,572.774048 169.216309,572.774048 
	C169.216309,541.859375 169.216309,511.128174 169.216309,480.198761 
	C173.041000,480.198761 176.659241,480.198761 180.676605,480.198761 
	C180.676605,484.171570 180.676605,488.251526 180.676605,491.979004 
	C185.442154,488.501801 189.695999,484.211212 194.836441,481.854248 
	C216.231003,472.044617 241.436234,481.761597 246.928970,506.841858 
	C247.658722,510.173950 247.942307,513.662964 247.960373,517.081848 
	C248.057892,535.545776 248.006577,554.010498 248.006577,572.999207 
	C244.604492,572.999207 241.475601,572.786804 238.389526,573.059204 
	C235.327240,573.329590 234.609909,571.961060 235.000336,568.853088 
z"/>
<path fill="#282829" opacity="1.000000" stroke="none" 
	d="
M448.990753,496.001526 
	C448.990753,490.195587 448.990753,484.889343 448.990753,479.292786 
	C457.300781,479.292786 465.365631,479.292786 473.716919,479.292786 
	C473.716919,510.315796 473.716919,541.367004 473.716919,572.709412 
	C465.689728,572.709412 457.624268,572.709412 448.990753,572.709412 
	C448.990753,547.329529 448.990753,521.915344 448.990753,496.001526 
z"/>
<path fill="#272728" opacity="1.000000" stroke="none" 
	d="
M117.300163,488.275208 
	C118.031372,486.420685 118.618790,484.911530 118.965111,483.348938 
	C119.491837,480.972382 120.552750,479.732056 123.287125,479.938416 
	C126.751961,480.199921 130.251511,480.001587 134.337677,480.001587 
	C121.934387,511.196045 109.709923,541.940796 97.415352,572.861816 
	C97.218132,572.885254 96.730278,572.991943 96.241989,572.994019 
	C83.224739,573.049072 83.460495,572.957397 78.933075,561.076172 
	C71.115631,540.560974 62.990044,520.163025 54.956284,499.730652 
	C52.391846,493.208405 49.708832,486.732758 47.031120,480.114807 
	C61.329506,479.688416 61.067299,479.782745 66.072052,493.695435 
	C73.704109,514.911804 81.739136,535.983276 89.616936,557.111084 
	C89.816963,557.647583 90.178131,558.124023 90.795670,559.213196 
	C99.665886,535.353455 108.357140,511.975037 117.300163,488.275208 
z"/>
<path fill="#282829" opacity="1.000000" stroke="none" 
	d="
M37.897362,572.999512 
	C34.784298,572.999512 32.150429,572.999512 29.260273,572.999512 
	C29.260273,541.972839 29.260273,511.251648 29.260273,480.264984 
	C33.361374,480.264984 37.427887,480.264984 42.004330,480.264984 
	C42.004330,481.426910 42.004330,482.535950 42.004330,483.644989 
	C42.004417,511.959595 41.992245,540.274170 42.025120,568.588806 
	C42.028133,571.183411 42.399227,573.843384 37.897362,572.999512 
z"/>
<path fill="#282829" opacity="1.000000" stroke="none" 
	d="
M152.022766,572.834167 
	C148.223801,572.834167 144.424850,572.834167 140.312851,572.834167 
	C140.312851,542.043274 140.312851,511.271606 140.312851,480.015839 
	C143.910172,480.015839 147.508545,480.015839 151.657196,480.269501 
	C152.370682,480.746948 152.584793,480.899109 152.849823,480.979584 
	C152.903625,511.018311 152.957413,541.057068 152.750488,571.645874 
	C152.266312,572.359131 152.110657,572.571838 152.022766,572.834167 
z"/>
<path fill="#272728" opacity="1.000000" stroke="none" 
	d="
M464.430389,440.141296 
	C470.709167,442.499146 475.114441,445.748413 476.439606,452.635345 
	C477.740295,459.395203 472.802246,468.393341 466.002655,469.959229 
	C459.411774,471.477051 450.837280,467.905792 448.097748,462.501862 
	C445.166321,456.719330 446.700653,447.369446 452.337128,443.482330 
	C455.519684,441.287506 460.087433,441.101166 464.430389,440.141296 
z"/>
<path fill="#262627" opacity="1.000000" stroke="none" 
	d="
M42.755802,448.374298 
	C45.964111,456.232391 44.378292,461.103851 37.511345,462.861023 
	C34.897881,463.529846 30.781590,462.867432 29.024244,461.124207 
	C27.080685,459.196167 25.951078,455.124146 26.476282,452.368866 
	C27.119661,448.993652 29.262098,444.925201 33.733540,445.161957 
	C36.713703,445.319733 39.611984,447.024078 42.755802,448.374298 
z"/>
<path fill="#272728" opacity="1.000000" stroke="none" 
	d="
M154.871872,450.669739 
	C155.029724,459.581390 154.132584,460.807220 148.799820,463.137604 
	C144.970840,464.810883 141.805359,463.120880 139.756180,461.005463 
	C137.150879,458.315948 135.413498,454.112183 138.122345,450.489929 
	C139.862427,448.163086 142.669983,445.857483 145.390167,445.225403 
	C149.330505,444.309784 152.997437,446.041412 154.871872,450.669739 
z"/>
<path fill="#1C1C1C" opacity="1.000000" stroke="none" 
	d="
M152.284088,572.878540 
	C152.110657,572.571838 152.266312,572.359131 152.670578,572.110107 
	C152.749390,572.323730 152.647385,572.623291 152.284088,572.878540 
z"/>
<path fill="#1C1C1C" opacity="1.000000" stroke="none" 
	d="
M152.886566,480.717560 
	C152.584793,480.899109 152.370682,480.746948 152.117371,480.344849 
	C152.325958,480.262848 152.624634,480.359192 152.886566,480.717560 
z"/>
<path fill="#FFFFFF" opacity="1.000000" stroke="none" 
	d="
M283.707092,296.294800 
	C275.278320,280.170044 269.107483,263.489227 266.316406,245.984772 
	C264.045532,231.742676 262.748505,217.094193 263.292175,202.711807 
	C264.163147,179.670349 269.617310,157.401978 279.279785,136.247192 
	C286.497253,120.445549 295.602722,105.973244 306.772217,92.659332 
	C324.221191,71.860283 345.174347,55.664055 369.663940,44.148315 
	C385.741730,36.588058 402.534332,30.771223 420.322906,29.121332 
	C434.446167,27.811396 448.745605,26.477264 462.843872,27.289125 
	C482.195709,28.403517 500.962769,33.311085 518.942322,40.945831 
	C532.175781,46.565205 544.734253,53.328968 556.288330,61.856144 
	C568.242371,70.678574 578.959106,80.793465 588.733215,92.070587 
	C598.642517,103.503670 606.957397,115.947121 613.563904,129.378922 
	C622.555664,147.660110 629.258728,166.843994 630.964478,187.372513 
	C631.892151,198.536499 633.412842,209.802841 632.770081,220.913330 
	C631.524780,242.439133 626.846069,263.326141 618.354736,283.364594 
	C607.275269,309.510986 590.929077,331.848358 569.818604,350.471375 
	C544.702271,372.628143 515.405334,386.633850 482.372559,393.194000 
	C465.437592,396.557190 448.373596,397.134460 431.544342,395.694702 
	C396.130737,392.665131 363.992889,380.039032 335.680084,358.198090 
	C317.149719,343.903503 301.942535,326.630859 289.479889,306.897552 
	C287.402893,303.608826 285.767059,300.041504 283.707092,296.294800 
M339.000061,247.500000 
	C339.000092,255.329269 339.091461,263.160187 338.950684,270.986908 
	C338.901184,273.737732 339.358673,275.714569 342.256775,276.801361 
	C344.205902,277.532318 345.901123,278.924530 347.739716,279.968414 
	C362.139160,288.143799 376.598663,296.214935 390.936737,304.496429 
	C408.652313,314.728760 426.290100,325.096619 443.906830,335.498535 
	C446.780640,337.195374 449.235107,337.181061 452.110809,335.492798 
	C461.210632,330.150360 470.450562,325.047241 479.581696,319.757263 
	C504.168976,305.513153 528.681885,291.139435 553.358643,277.052490 
	C556.322693,275.360443 557.072021,273.606720 557.061279,270.474304 
	C556.958435,240.489914 556.999878,210.505051 556.999878,180.520309 
	C556.999878,178.761688 556.999817,177.003067 556.999817,174.552765 
	C572.080994,174.552765 586.496826,174.552765 602.170654,174.552765 
	C576.942749,159.868149 553.003601,145.893585 529.024963,131.987106 
	C503.184235,117.000740 477.339050,102.020943 451.371826,87.256317 
	C449.640625,86.271996 446.378113,86.278786 444.642090,87.262115 
	C420.910950,100.704269 397.311493,114.379303 373.704041,128.039246 
	C352.478027,140.321213 331.279510,152.650757 310.074677,164.969254 
	C305.016693,167.907593 299.981720,170.885620 294.936188,173.845398 
	C295.031097,174.221802 295.126007,174.598190 295.220917,174.974594 
	C309.716431,174.974594 324.211975,174.974594 339.000061,174.974594 
	C339.000061,199.243713 339.000061,222.871857 339.000061,247.500000 
z"/>
<path fill="#FFFFFF" opacity="1.000000" stroke="none" 
	d="
M868.557983,517.980713 
	C854.485779,517.997437 840.872253,517.997437 826.890808,517.997437 
	C830.062805,507.015198 835.331543,499.212952 847.718079,498.726990 
	C858.384888,498.308502 868.367554,505.101471 869.938477,516.517090 
	C869.997925,516.948914 869.340149,517.479492 868.557983,517.980713 
z"/>
<path fill="#FFFFFF" opacity="1.000000" stroke="none" 
	d="
M322.166016,637.000916 
	C326.621246,636.449219 328.235931,639.143555 327.778595,642.219421 
	C327.468689,644.303772 325.399384,646.719299 323.462799,647.717285 
	C322.504517,648.211121 319.109497,646.216309 318.503784,644.681641 
	C317.295990,641.621643 317.091736,638.030396 322.166016,637.000916 
z"/>
<path fill="#FFFFFF" opacity="1.000000" stroke="none" 
	d="
M723.661133,504.167908 
	C736.462769,514.254211 735.331604,535.987122 725.930237,545.612122 
	C720.005310,551.677917 712.780151,554.317017 704.732239,552.691833 
	C695.216736,550.770264 688.691284,544.528381 686.145813,535.099548 
	C683.845337,526.578064 684.326721,518.111755 689.198669,510.268005 
	C694.852234,501.165741 708.401917,494.840088 720.024597,502.033264 
	C721.116272,502.708893 722.263489,503.294952 723.661133,504.167908 
z"/>
<path fill="#FFFFFF" opacity="1.000000" stroke="none" 
	d="
M272.978027,541.855835 
	C265.016541,520.157410 272.881989,496.937195 294.989868,490.738159 
	C306.525482,487.503571 320.060608,490.024750 329.131165,502.496735 
	C340.225464,517.751465 339.963287,533.553162 330.780151,548.848450 
	C322.511963,562.619812 303.288910,569.280090 287.463745,559.262024 
	C280.584076,554.906860 276.513214,549.047729 272.978027,541.855835 
z"/>
<path fill="#8CD50B" opacity="1.000000" stroke="none" 
	d="
M339.000061,247.000000 
	C339.000061,222.871857 339.000061,199.243713 339.000061,174.974594 
	C324.211975,174.974594 309.716431,174.974594 295.220917,174.974594 
	C295.126007,174.598190 295.031097,174.221802 294.936188,173.845398 
	C299.981720,170.885620 305.016693,167.907593 310.074677,164.969254 
	C331.279510,152.650757 352.478027,140.321213 373.704041,128.039246 
	C397.311493,114.379303 420.910950,100.704269 444.642090,87.262115 
	C446.378113,86.278786 449.640625,86.271996 451.371826,87.256317 
	C477.339050,102.020943 503.184235,117.000740 529.024963,131.987106 
	C553.003601,145.893585 576.942749,159.868149 602.170654,174.552765 
	C586.496826,174.552765 572.080994,174.552765 556.999817,174.552765 
	C556.999817,177.003067 556.999878,178.761688 556.999878,180.520309 
	C556.999878,210.505051 556.958435,240.489914 557.061279,270.474304 
	C557.072021,273.606720 556.322693,275.360443 553.358643,277.052490 
	C528.681885,291.139435 504.168976,305.513153 479.581696,319.757263 
	C470.450562,325.047241 461.210632,330.150360 452.110809,335.492798 
	C449.235107,337.181061 446.780640,337.195374 443.906830,335.498535 
	C426.290100,325.096619 408.652313,314.728760 390.936737,304.496429 
	C376.598663,296.214935 362.139160,288.143799 347.739716,279.968414 
	C345.901123,278.924530 344.205902,277.532318 342.256775,276.801361 
	C339.358673,275.714569 338.901184,273.737732 338.950684,270.986908 
	C339.091461,263.160187 339.000092,255.329269 339.000061,247.000000 
M376.502289,266.997894 
	C383.427368,270.914856 390.385986,274.773956 397.270844,278.760376 
	C413.295410,288.038788 429.253571,297.432770 445.344086,306.594696 
	C446.693329,307.363007 449.208984,307.405975 450.551514,306.655975 
	C462.604340,299.922821 474.523163,292.949280 486.466705,286.021057 
	C500.233337,278.035278 513.896851,269.864716 527.812866,262.149109 
	C530.833130,260.474579 532.102844,259.026428 532.084900,255.505478 
	C531.935547,226.185944 531.930237,196.864899 532.103027,167.545624 
	C532.121338,164.442535 531.014832,162.655197 528.654785,161.287933 
	C524.301270,158.765747 519.868774,156.380157 515.513977,153.860123 
	C493.870758,141.335663 472.265991,128.744308 450.550476,116.346672 
	C449.222656,115.588593 446.738617,115.686371 445.340942,116.424423 
	C439.611115,119.450127 434.117035,122.918709 428.494263,126.151398 
	C408.216248,137.809814 387.890625,149.386246 367.689758,161.176620 
	C366.045837,162.136093 364.167145,164.474289 364.155060,166.184235 
	C363.941284,196.502579 363.973480,226.822952 364.092377,257.142334 
	C364.097473,258.440216 365.133484,260.203644 366.232147,260.938049 
	C369.328186,263.007660 372.707611,264.653320 376.502289,266.997894 
z"/>
<path fill="#FFFFFF" opacity="1.000000" stroke="none" 
	d="
M376.238831,266.731995 
	C372.707611,264.653320 369.328186,263.007660 366.232147,260.938049 
	C365.133484,260.203644 364.097473,258.440216 364.092377,257.142334 
	C363.973480,226.822952 363.941284,196.502579 364.155060,166.184235 
	C364.167145,164.474289 366.045837,162.136093 367.689758,161.176620 
	C387.890625,149.386246 408.216248,137.809814 428.494263,126.151398 
	C434.117035,122.918709 439.611115,119.450127 445.340942,116.424423 
	C446.738617,115.686371 449.222656,115.588593 450.550476,116.346672 
	C472.265991,128.744308 493.870758,141.335663 515.513977,153.860123 
	C519.868774,156.380157 524.301270,158.765747 528.654785,161.287933 
	C531.014832,162.655197 532.121338,164.442535 532.103027,167.545624 
	C531.930237,196.864899 531.935547,226.185944 532.084900,255.505478 
	C532.102844,259.026428 530.833130,260.474579 527.812866,262.149109 
	C513.896851,269.864716 500.233337,278.035278 486.466705,286.021057 
	C474.523163,292.949280 462.604340,299.922821 450.551514,306.655975 
	C449.208984,307.405975 446.693329,307.363007 445.344086,306.594696 
	C429.253571,297.432770 413.295410,288.038788 397.270844,278.760376 
	C390.385986,274.773956 383.427368,270.914856 376.238831,266.731995 
M418.997833,202.385635 
	C418.997833,204.153870 418.997833,205.922104 418.997833,207.650497 
	C428.000580,207.650497 436.391815,207.650497 444.603546,207.650497 
	C444.603546,199.235794 444.603546,191.175186 444.603546,183.265930 
	C435.931915,183.265930 427.659363,183.265930 418.997833,183.265930 
	C418.997833,189.486847 418.997833,195.449860 418.997833,202.385635 
M451.128632,183.791351 
	C451.128632,191.703979 451.128632,199.616608 451.128632,207.762375 
	C459.811188,207.762375 468.171692,207.762375 476.767700,207.762375 
	C476.767700,199.516907 476.767700,191.488571 476.767700,183.125000 
	C468.298187,183.125000 460.055115,183.125000 451.128632,183.791351 
M458.567444,215.000244 
	C456.136444,215.000244 453.705414,215.000244 451.366241,215.000244 
	C451.366241,223.703247 451.366241,231.761475 451.366241,239.765137 
	C460.006744,239.765137 468.278839,239.765137 476.721710,239.765137 
	C476.721710,231.472855 476.721710,223.416748 476.721710,215.000244 
	C470.814026,215.000244 465.181061,215.000244 458.567444,215.000244 
M438.415741,239.999817 
	C440.514679,239.999817 442.613617,239.999817 444.640015,239.999817 
	C444.640015,231.309799 444.640015,223.252151 444.640015,215.228363 
	C436.006317,215.228363 427.734680,215.228363 419.272125,215.228363 
	C419.272125,223.513428 419.272125,231.569199 419.272125,239.999817 
	C425.503693,239.999817 431.468048,239.999817 438.415741,239.999817 
z"/>
<path fill="#8CD50B" opacity="1.000000" stroke="none" 
	d="
M418.997833,201.899261 
	C418.997833,195.449860 418.997833,189.486847 418.997833,183.265930 
	C427.659363,183.265930 435.931915,183.265930 444.603546,183.265930 
	C444.603546,191.175186 444.603546,199.235794 444.603546,207.650497 
	C436.391815,207.650497 428.000580,207.650497 418.997833,207.650497 
	C418.997833,205.922104 418.997833,204.153870 418.997833,201.899261 
z"/>
<path fill="#8CD50B" opacity="1.000000" stroke="none" 
	d="
M451.470337,183.458176 
	C460.055115,183.125000 468.298187,183.125000 476.767700,183.125000 
	C476.767700,191.488571 476.767700,199.516907 476.767700,207.762375 
	C468.171692,207.762375 459.811188,207.762375 451.128632,207.762375 
	C451.128632,199.616608 451.128632,191.703979 451.470337,183.458176 
z"/>
<path fill="#8CD50B" opacity="1.000000" stroke="none" 
	d="
M459.057770,215.000244 
	C465.181061,215.000244 470.814026,215.000244 476.721710,215.000244 
	C476.721710,223.416748 476.721710,231.472855 476.721710,239.765137 
	C468.278839,239.765137 460.006744,239.765137 451.366241,239.765137 
	C451.366241,231.761475 451.366241,223.703247 451.366241,215.000244 
	C453.705414,215.000244 456.136444,215.000244 459.057770,215.000244 
z"/>
<path fill="#8CD50B" opacity="1.000000" stroke="none" 
	d="
M437.924072,239.999817 
	C431.468048,239.999817 425.503693,239.999817 419.272125,239.999817 
	C419.272125,231.569199 419.272125,223.513428 419.272125,215.228363 
	C427.734680,215.228363 436.006317,215.228363 444.640015,215.228363 
	C444.640015,223.252151 444.640015,231.309799 444.640015,239.999817 
	C442.613617,239.999817 440.514679,239.999817 437.924072,239.999817 
z"/>
</svg>