<svg version="1.1" id="Layer_1" xmlns="http://www.w3.org/2000/svg" xmlns:xlink="http://www.w3.org/1999/xlink" x="0px" y="0px"
	 width="100%" viewBox="0 0 512 512" enable-background="new 0 0 512 512" xml:space="preserve">
<path fill="#000000" opacity="1.000000" stroke="none" 
	d="
M48.888977,296.872833 
	C45.734463,277.164276 43.876709,257.817505 45.947788,238.274750 
	C48.294930,216.127045 53.170609,194.607086 62.126019,174.140137 
	C84.764870,122.400620 122.025383,85.172478 173.817871,62.776733 
	C193.084015,54.445820 213.285416,49.478184 234.339310,47.367085 
	C246.676819,46.129986 258.880096,45.398735 271.165100,46.535858 
	C322.815765,51.316734 367.777283,70.795090 404.796600,107.643707 
	C435.058746,137.766342 454.306152,173.876343 462.673279,215.616486 
	C466.638336,235.396500 467.435120,255.403397 465.677002,275.690460 
	C461.066437,328.891296 438.776062,373.373199 400.619476,410.016876 
	C378.258301,431.491394 351.972168,446.801056 322.434082,456.706665 
	C293.175171,466.518616 263.235596,469.322632 232.811417,466.120422 
	C198.843735,462.545258 167.507889,451.126038 138.998398,432.059387 
	C107.084412,410.715973 83.043625,382.562775 66.110626,348.287445 
	C58.114616,332.102112 52.760548,314.937775 48.888977,296.872833 
M409.278229,359.787994 
	C411.977325,355.218719 415.001587,350.870941 417.601166,346.212708 
	C436.612213,312.146484 443.767517,275.727722 439.830322,237.034882 
	C436.191895,201.278580 422.896088,169.321472 400.442017,141.469116 
	C374.474243,109.258308 341.308502,87.931099 300.928986,77.811043 
	C268.805695,69.760193 236.874832,70.518433 205.203003,79.207214 
	C178.531250,86.524292 154.741333,99.647240 133.977280,118.055870 
	C96.588272,151.203537 75.699318,192.928635 71.570847,242.461792 
	C68.365494,280.919281 76.634743,317.317780 96.847488,350.532990 
	C131.032730,406.708954 181.661011,436.368134 246.664474,441.465149 
	C272.988586,443.529297 298.731903,438.547882 323.280212,428.816040 
	C358.714813,414.768524 387.492462,392.137817 409.278229,359.787994 
z"/>
<path fill="#000000" opacity="1.000000" stroke="none" 
	d="
M109.376556,220.352295 
	C107.477020,220.271286 105.951477,220.494354 104.657196,219.439117 
	C104.849289,217.046753 106.811119,216.513962 108.281570,215.661682 
	C138.190933,198.326080 168.114639,181.015213 198.051849,163.727737 
	C215.473801,153.667252 232.992599,143.771759 250.311935,133.538208 
	C254.401169,131.121979 257.478882,131.011612 261.697052,133.489624 
	C293.536774,152.194138 325.527069,170.642792 357.502197,189.116180 
	C373.192352,198.181076 388.956421,207.118088 404.666138,216.149323 
	C405.888031,216.851791 407.495850,217.332123 407.589325,219.621155 
	C402.346161,221.242935 396.884277,220.584991 391.542786,220.701279 
	C384.731476,220.849548 377.902771,220.664871 371.095184,220.338989 
	C367.036469,220.144699 365.847198,222.018860 365.868774,225.700974 
	C365.943970,238.530411 365.879181,251.360626 365.888702,264.190521 
	C365.900482,280.019623 365.715057,295.853607 366.070587,311.675232 
	C366.202545,317.547089 364.330963,320.959778 359.069031,323.949829 
	C326.815918,342.277039 294.735687,360.911316 262.737305,379.681061 
	C257.989594,382.465973 254.401016,382.604431 249.529404,379.741547 
	C216.966354,360.605438 184.242920,341.740448 151.458694,322.984711 
	C147.435242,320.682922 145.931198,317.960083 145.951370,313.436310 
	C146.079208,284.777893 146.006363,256.118561 145.976929,227.459534 
	C145.970200,220.909378 145.453140,220.406570 138.816132,220.382172 
	C129.152634,220.346664 119.488960,220.363098 109.376556,220.352295 
M206.346146,188.905289 
	C196.696609,194.480301 187.145844,200.237915 177.347412,205.537628 
	C173.593948,207.567780 172.215530,210.036484 172.234299,214.218445 
	C172.360580,242.361420 172.392227,270.506104 172.178940,298.648132 
	C172.142349,303.477661 173.875854,306.158600 177.988449,308.489441 
	C202.857452,322.584259 227.609726,336.885620 252.347672,351.210083 
	C255.032608,352.764801 257.234161,352.492584 259.765778,351.031342 
	C285.246124,336.324341 310.752899,321.663208 336.272949,307.025208 
	C338.669830,305.650391 339.775513,303.874481 339.767273,300.999756 
	C339.683075,271.690674 339.678955,242.381210 339.737915,213.072037 
	C339.744385,209.867538 338.564514,207.959808 335.724060,206.339432 
	C310.594330,192.003754 285.487122,177.625198 260.552246,162.955063 
	C256.889191,160.799973 254.361115,161.163116 251.052902,163.101715 
	C236.418991,171.677139 221.682434,180.077408 206.346146,188.905289 
z"/>
<path fill="#000000" opacity="1.000000" stroke="none" 
	d="
M226.877289,235.116257 
	C226.889175,227.744278 226.889145,227.732208 233.826767,227.716797 
	C238.638916,227.706100 243.453445,227.827850 248.262589,227.711945 
	C251.399048,227.636322 252.895218,228.980392 252.907028,232.080048 
	C252.929169,237.887207 253.001663,243.694519 252.973984,249.501404 
	C252.958725,252.701660 251.444336,254.339813 248.031845,254.251282 
	C242.559311,254.109283 237.078674,254.087372 231.606033,254.213440 
	C228.234116,254.291138 226.737762,252.970047 226.836700,249.537872 
	C226.970505,244.895447 226.876160,240.246460 226.877289,235.116257 
z"/>
<path fill="#000000" opacity="1.000000" stroke="none" 
	d="
M251.888763,284.963531 
	C244.245911,287.151154 236.794800,286.009491 229.383881,285.939362 
	C227.586395,285.922394 226.942963,284.355743 226.928940,282.729980 
	C226.873001,276.249115 226.860550,269.767792 226.859909,263.286621 
	C226.859650,260.786255 228.258408,259.739532 230.658493,259.746155 
	C236.807800,259.763092 242.957291,259.774109 249.106476,259.742371 
	C251.256241,259.731262 252.821014,260.567291 252.797806,262.815521 
	C252.722778,270.084595 253.911942,277.395660 251.888763,284.963531 
z"/>
<path fill="#000000" opacity="1.000000" stroke="none" 
	d="
M283.503784,228.171082 
	C286.461029,235.988434 284.849091,243.791931 284.859558,251.512024 
	C284.862183,253.438019 283.034180,254.154663 281.205292,254.161682 
	C275.211823,254.184692 269.217865,254.133545 263.224731,254.183670 
	C260.466248,254.206726 259.337097,252.851837 259.324188,250.208374 
	C259.294098,244.052124 259.178955,237.896255 259.156311,231.740005 
	C259.145508,228.805237 260.764282,227.646515 263.622589,227.710464 
	C270.109497,227.855621 276.598846,227.890762 283.503784,228.171082 
z"/>
<path fill="#000000" opacity="1.000000" stroke="none" 
	d="
M259.580750,261.601105 
	C260.879669,259.524475 262.641235,259.745728 264.275360,259.735199 
	C269.603729,259.700867 274.935150,259.826233 280.260162,259.688721 
	C283.536438,259.604156 285.258240,260.674652 285.187347,264.221649 
	C285.070892,270.047363 285.144196,275.877289 285.173126,281.705261 
	C285.188477,284.798309 283.782318,286.276917 280.612396,286.223877 
	C275.118774,286.131927 269.621490,286.094971 264.128479,286.190308 
	C261.061493,286.243530 259.375214,285.062469 259.374756,281.891479 
	C259.373779,275.260834 259.388153,268.630219 259.580750,261.601105 
z"/>
</svg>